<?xml version="1.0"?>
<svg xmlns="http://www.w3.org/2000/svg" height="512px" viewBox="0 0 64 64" width="512px" class=""><g><g id="money-coin-finance"><path d="m35 12v2h1a9.975 9.975 0 0 1 8.144 4.517l1.713-1.032a12.5 12.5 0 0 0 -3.435-3.485h4.578v-2z" data-original="#000000" class="active-path" data-old_color="#000000" fill="#4E73DF"/><path d="m21 12h2v2h-2z" data-original="#000000" class="active-path" data-old_color="#000000" fill="#4E73DF"/><path d="m6 59h9v1h-9z" data-original="#000000" class="active-path" data-old_color="#000000" fill="#4E73DF"/><path d="m17 50h13v10h-13z" data-original="#000000" class="active-path" data-old_color="#000000" fill="#4E73DF"/><path d="m21 45a6 6 0 1 0 -6-6 6.006 6.006 0 0 0 6 6zm.5-5h-1a2.5 2.5 0 0 1 -.5-4.949v-1.051h2v1.051a2.5 2.5 0 0 1 2 2.449h-2a.5.5 0 0 0 -.5-.5h-1a.5.5 0 0 0 0 1h1a2.5 2.5 0 0 1 .5 4.949v1.051h-2v-1.051a2.5 2.5 0 0 1 -2-2.449h2a.5.5 0 0 0 .5.5h1a.5.5 0 0 0 0-1z" data-original="#000000" class="active-path" data-old_color="#000000" fill="#4E73DF"/><path d="m6.86 30h-2.86v2.86a4.017 4.017 0 0 0 2.86-2.86z" data-original="#000000" class="active-path" data-old_color="#000000" fill="#4E73DF"/><path d="m8.91 48h24.18a5.992 5.992 0 0 1 4.91-4.91v-8.18a5.992 5.992 0 0 1 -4.91-4.91h-24.18a5.992 5.992 0 0 1 -4.91 4.91v8.18a5.992 5.992 0 0 1 4.91 4.91zm21.09-10h3v2h-3zm-9-7a8 8 0 1 1 -8 8 8.009 8.009 0 0 1 8-8zm-12 7h3v2h-3z" data-original="#000000" class="active-path" data-old_color="#000000" fill="#4E73DF"/><path d="m44 44h1.73a7.973 7.973 0 0 1 1.07-12.8c-2.75-7.3-7.33-13.18-12.26-15.75a1.008 1.008 0 0 1 -.54-.89v-.56h-10v.56a1.008 1.008 0 0 1 -.54.89c-4.17 2.17-8.08 6.7-10.89 12.55h26.43a1 1 0 0 1 1 1v19h2a1 1 0 0 1 1 1v-4a1 1 0 0 1 1-1z" data-original="#000000" class="active-path" data-old_color="#000000" fill="#4E73DF"/><path d="m46 50h-2a1 1 0 0 1 -1-1v5.23c.35-.25.68-.52 1-.79v-.44a1 1 0 0 1 1-1h1z" data-original="#000000" class="active-path" data-old_color="#000000" fill="#4E73DF"/><path d="m4 45.14v2.86h2.86a4.017 4.017 0 0 0 -2.86-2.86z" data-original="#000000" class="active-path" data-old_color="#000000" fill="#4E73DF"/><path d="m38 30h-2.86a4.017 4.017 0 0 0 2.86 2.86z" data-original="#000000" class="active-path" data-old_color="#000000" fill="#4E73DF"/><path d="m6 50h9v1h-9z" data-original="#000000" class="active-path" data-old_color="#000000" fill="#4E73DF"/><path d="m6 56h9v1h-9z" data-original="#000000" class="active-path" data-old_color="#000000" fill="#4E73DF"/><path d="m6 53h9v1h-9z" data-original="#000000" class="active-path" data-old_color="#000000" fill="#4E73DF"/><path d="m48 50h12v2h-12z" data-original="#000000" class="active-path" data-old_color="#000000" fill="#4E73DF"/><path d="m48 58h12v2h-12z" data-original="#000000" class="active-path" data-old_color="#000000" fill="#4E73DF"/><path d="m45 46h12v2h-12z" data-original="#000000" class="active-path" data-old_color="#000000" fill="#4E73DF"/><path d="m32 50h9v1h-9z" data-original="#000000" class="active-path" data-old_color="#000000" fill="#4E73DF"/><path d="m19.16 7.96 4.29 2.15a.988.988 0 0 1 .55.89v1h10v-1a.988.988 0 0 1 .55-.89l5.32-2.66a.233.233 0 0 0 .13-.21.243.243 0 0 0 -.24-.24h-11.18a3.205 3.205 0 0 1 -3.03-2.18 1.192 1.192 0 0 0 -1.13-.82h-4.33a2.1 2.1 0 0 0 -2.09 2.09 2.071 2.071 0 0 0 1.16 1.87z" data-original="#000000" class="active-path" data-old_color="#000000" fill="#4E73DF"/><path d="m45 38a6 6 0 1 0 6-6 6 6 0 0 0 -6 6zm6.5 1h-1a2.5 2.5 0 0 1 -.5-4.949v-1.051h2v1.051a2.5 2.5 0 0 1 2 2.449h-2a.5.5 0 0 0 -.5-.5h-1a.5.5 0 0 0 0 1h1a2.5 2.5 0 0 1 .5 4.949v1.051h-2v-1.051a2.5 2.5 0 0 1 -2-2.449h2a.5.5 0 0 0 .5.5h1a.5.5 0 0 0 0-1z" data-original="#000000" class="active-path" data-old_color="#000000" fill="#4E73DF"/><path d="m38 48v-2.86a4.017 4.017 0 0 0 -2.86 2.86z" data-original="#000000" class="active-path" data-old_color="#000000" fill="#4E73DF"/><path d="m46 54h12v2h-12z" data-original="#000000" class="active-path" data-old_color="#000000" fill="#4E73DF"/><path d="m32 56h9v1h-9z" data-original="#000000" class="active-path" data-old_color="#000000" fill="#4E73DF"/><path d="m32 59h9v1h-9z" data-original="#000000" class="active-path" data-old_color="#000000" fill="#4E73DF"/><path d="m32 53h9v1h-9z" data-original="#000000" class="active-path" data-old_color="#000000" fill="#4E73DF"/></g></g> </svg>
