<?xml version="1.0"?>
<svg xmlns="http://www.w3.org/2000/svg" xmlns:xlink="http://www.w3.org/1999/xlink" version="1.1" id="Capa_1" x="0px" y="0px" viewBox="0 0 492.105 492.105" style="enable-background:new 0 0 492.105 492.105;" xml:space="preserve" width="512px" height="512px"><g><g id="XMLID_146_">
	<path id="XMLID_150_" d="M86.827,196.539c1.865,0,3.608-0.428,5.442-0.546l-25.93-15.887c-11.656-7.137-18.76-19.809-18.777-33.46   l-0.051-30.222c-0.031-21.715,17.531-39.35,39.246-39.381c0.02,0,0.051,0,0.069,0c21.678,0,39.28,17.557,39.312,39.247l0.018,8.245   l38.276,23.446c5.724-11.589,9.235-24.452,9.235-38.25c0-47.987-38.875-86.831-86.841-86.831C38.863,22.9,0,61.744,0,109.731   C0,157.679,38.863,196.539,86.827,196.539z" data-original="#000000" class="active-path" data-old_color="#000000" fill="#4E73DF"/>
	<path id="XMLID_149_" d="M476.31,264.587c-12.932-5.272-27.68,1-32.949,13.933l-56.836,140.104h-48.449h-78.091   c-3.907,0-7.555,0.954-10.862,2.535c-8.494,4.072-14.428,12.688-14.428,22.756c0,13.971,11.323,25.292,25.29,25.292h143.573   c10.297,0,19.563-6.24,23.445-15.788l63.244-155.888C495.49,284.591,489.258,269.837,476.31,264.587z" data-original="#000000" class="active-path" data-old_color="#000000" fill="#4E73DF"/>
	<path id="XMLID_148_" d="M106.492,116.325c-0.018-10.851-8.818-19.626-19.665-19.626c-0.019,0-0.019,0-0.038,0   c-10.844,0.019-19.645,8.836-19.626,19.693l0.045,30.219c0.019,6.827,3.583,13.16,9.388,16.727l84.039,51.49   c3.212,1.964,6.748,2.906,10.263,2.906c6.615,0,13.067-3.343,16.778-9.398c5.678-9.251,2.77-21.36-6.483-27.028l-74.687-45.755   L106.492,116.325z" data-original="#000000" class="active-path" data-old_color="#000000" fill="#4E73DF"/>
	<path id="XMLID_147_" d="M353.781,364.242c0-17.464-14.16-31.614-31.622-31.614H208.125l-78.07-75.287l33.822,21.271   c-1.377-33.948-29.136-61.099-63.414-61.099H73.289c-35.166,0-63.664,28.501-63.664,63.66v169.667   c0,10.143,8.213,18.365,18.355,18.365h117.791c10.143,0,18.355-8.223,18.355-18.365v-37.349c-3.136-2.386-6.028-5.066-8.26-8.287   L86.156,302.853l87.256,84.146c5.896,5.684,13.777,8.858,21.951,8.858h126.796C339.621,395.858,353.781,381.707,353.781,364.242z" data-original="#000000" class="active-path" data-old_color="#000000" fill="#4E73DF"/>
</g></g> </svg>
